<svg xmlns="http://www.w3.org/2000/svg" width="512" height="512"  viewBox="0 0 512 512" style="shape-rendering:geometricPrecision;text-rendering:geometricPrecision;image-rendering:optimizeQuality;fill-rule:evenodd;clip-rule:evenodd"><path fill="#3a8fe5" d="M250.5-.5h13c5.048 2.867 9.715 6.367 14 10.5a7121.678 7121.678 0 0 0 74 69.5 530.716 530.716 0 0 1-38 22c-2.457-23.457-15.457-36.123-39-38-19.425 1.25-31.925 11.25-37.5 30a72.367 72.367 0 0 0-.5 12c-24.804.3-38.804 12.8-42 37.5.414 8.173 2.747 15.673 7 22.5 24.592.999 49.925 1.333 76 1a2087.542 2087.542 0 0 0-53 31h-79a80186.674 80186.674 0 0 1 53-30.5 5509.9 5509.9 0 0 0-105-.5c45.627-50.13 91.46-100.13 137.5-150 5.829-6.678 12.329-12.344 19.5-17Z" style="opacity:.993"/><path fill="#fd9f06" d="M313.5 101.5a773.843 773.843 0 0 1-46 26c-6.235-12.963-16.568-20.297-31-22a72.367 72.367 0 0 1 .5-12c5.575-18.75 18.075-28.75 37.5-30 23.543 1.877 36.543 14.543 39 38Z" style="opacity:1"/><path fill="#419efd" d="M399.5 97.5a718788 718788 0 0 0-120 69h-2c-26.075.333-51.408-.001-76-1 22.035-12.682 44.035-25.348 66-38a773.843 773.843 0 0 0 46-26 530.716 530.716 0 0 0 38-22 82.491 82.491 0 0 1 17-8.5c8.157-1.06 14.99 1.44 20.5 7.5a309.67 309.67 0 0 1 10.5 19Z" style="opacity:.996"/><path fill="#36474f" d="M399.5 97.5a1000.396 1000.396 0 0 1 21 37l-54 31-4 2a1723.12 1723.12 0 0 0-83-1 718788 718788 0 0 1 120-69Z" style="opacity:.996"/><path fill="#ee5350" d="M236.5 105.5c14.432 1.703 24.765 9.037 31 22a216526.764 216526.764 0 0 1-66 38c-4.253-6.827-6.586-14.327-7-22.5 3.196-24.7 17.196-37.2 42-37.5Z" style="opacity:1"/><path fill="#3f9efd" d="M420.5 134.5a374.093 374.093 0 0 1 18 32c-24.172.331-48.172-.002-72-1l54-31Z" style="opacity:.989"/><path fill="#2c3940" d="M277.5 166.5h2a1723.12 1723.12 0 0 1 83 1 1939.516 1939.516 0 0 0-51 30h-87a2087.542 2087.542 0 0 1 53-31Z" style="opacity:1"/><path fill="#337fcc" d="M93.5 166.5a5509.9 5509.9 0 0 1 105 .5 80186.674 80186.674 0 0 0-53 30.5h-81a637.723 637.723 0 0 1 29-31Z" style="opacity:1"/><path fill="#3a8fe5" d="M366.5 165.5c23.828.998 47.828 1.331 72 1a701.995 701.995 0 0 1 18 31h-145a1939.516 1939.516 0 0 1 51-30l4-2Z" style="opacity:1"/><path fill="#d58f5f" d="M57.5 197.5h399c25.798-2.535 37.798 9.131 36 35-6.675-.166-13.342 0-20 .5-5.562 5.163-5.229 9.829 1 14 6.325.5 12.658.666 19 .5v60c-31.668-.167-63.335 0-95 .5-8.857 2.189-15.357 7.356-19.5 15.5a245.895 245.895 0 0 0-1.5 30.5l.5 27.5c2.651 8.654 8.151 14.821 16.5 18.5a1667.88 1667.88 0 0 0 99 1.5v60c-6.342-.166-12.675 0-19 .5-6.797 5.38-6.464 10.38 1 15 5.991.499 11.991.666 18 .5 2.331 16.015-3.669 27.349-18 34h-417v-34c8.184.326 16.184-.008 24-1 6.483-3.082 7.483-7.415 3-13l-3-1.5c-7.993-.5-15.993-.666-24-.5v-214c9.108.443 18.108-.057 27-1.5 4.544-5.782 3.544-10.282-3-13.5-7.816-.992-15.816-1.326-24-1v-34Z" style="opacity:1"/><path fill="#c78659" d="M57.5 197.5v34c8.184-.326 16.184.008 24 1a250.354 250.354 0 0 0-38 1.5c-3.149 4.962-2.482 9.295 2 13 3.986.499 7.986.666 12 .5v214c-4.467-.367-8.8.133-13 1.5-3.615 3.659-3.949 7.659-1 12a250.354 250.354 0 0 0 38 1.5c-7.816.992-15.816 1.326-24 1v34h-37c-14.641-6.943-20.641-18.61-18-35 6.675.166 13.342 0 20-.5 5.588-5.067 5.255-9.733-1-14-6.325-.5-12.658-.666-19-.5v-214c6.01.166 12.01-.001 18-.5 5.758-2.11 7.258-5.943 4.5-11.5a6.977 6.977 0 0 0-3.5-2.5c-6.325-.5-12.658-.666-19-.5-2.593-13.742 1.74-24.576 13-32.5a20.641 20.641 0 0 1 6-2c11.995-.5 23.995-.667 36-.5Z" style="opacity:1"/><path fill="#ba7241" d="M2.5 232.5c6.342-.166 12.675 0 19 .5a6.977 6.977 0 0 1 3.5 2.5c2.758 5.557 1.258 9.39-4.5 11.5-5.99.499-11.99.666-18 .5v-15Z" style="opacity:.979"/><path fill="#ba7241" d="M81.5 232.5c6.544 3.218 7.544 7.718 3 13.5a128.978 128.978 0 0 1-27 1.5 72.368 72.368 0 0 1-12-.5c-4.482-3.705-5.149-8.038-2-13a250.354 250.354 0 0 1 38-1.5ZM106.5 232.5c12.671-.167 25.338 0 38 .5 5.562 5.163 5.229 9.829-1 14a342.33 342.33 0 0 1-37 0c-5.311-4.955-5.311-9.788 0-14.5ZM167.5 232.5c12.671-.167 25.338 0 38 .5 5.562 5.163 5.229 9.829-1 14a342.33 342.33 0 0 1-37 0c-5.298-4.908-5.298-9.742 0-14.5ZM228.5 232.5c12.671-.167 25.338 0 38 .5 5.486 5.081 5.153 9.748-1 14-12 .667-24 .667-36 0-6.208-4.42-6.542-9.253-1-14.5ZM289.5 232.5c12.671-.167 25.338 0 38 .5 5.329 5.034 4.996 9.701-1 14-12 .667-24 .667-36 0-6.062-4.465-6.395-9.298-1-14.5ZM350.5 232.5c12.671-.167 25.338 0 38 .5 5.486 5.081 5.153 9.748-1 14-12 .667-24 .667-36 0-6.208-4.42-6.542-9.253-1-14.5ZM411.5 232.5c12.671-.167 25.338 0 38 .5 5.486 5.081 5.153 9.748-1 14-12 .667-24 .667-36 0-6.208-4.42-6.542-9.253-1-14.5Z" style="opacity:1"/><path fill="#ba7241" d="M492.5 232.5v15c-6.342.166-12.675 0-19-.5-6.229-4.171-6.562-8.837-1-14 6.658-.5 13.325-.666 20-.5Z" style="opacity:.973"/><path fill="#ba7241" d="M492.5 307.5c6.526-.322 11.36 2.345 14.5 8a396.26 396.26 0 0 1 1.5 39 396.26 396.26 0 0 1-1.5 39c-3.162 5.665-7.995 8.332-14.5 8a1667.88 1667.88 0 0 1-99-1.5c-8.349-3.679-13.849-9.846-16.5-18.5l-.5-27.5c-.13-10.236.37-20.403 1.5-30.5 4.143-8.144 10.643-13.311 19.5-15.5 31.665-.5 63.332-.667 95-.5Z" style="opacity:.996"/><path fill="#d58f5f" d="M424.5 336.5c15.68-1.477 23.514 5.523 23.5 21-1.288 7.29-5.455 12.123-12.5 14.5-16.604 1.73-24.437-5.77-23.5-22.5 2.379-6.21 6.546-10.543 12.5-13Z" style="opacity:1"/><path fill="#ba7241" d="M2.5 461.5c6.342-.166 12.675 0 19 .5 6.255 4.267 6.588 8.933 1 14-6.658.5-13.325.666-20 .5v-15Z" style="opacity:.979"/><path fill="#ba7241" d="M57.5 461.5c8.007-.166 16.007 0 24 .5l3 1.5c4.483 5.585 3.483 9.918-3 13a250.354 250.354 0 0 1-38-1.5c-2.949-4.341-2.615-8.341 1-12 4.2-1.367 8.533-1.867 13-1.5Z" style="opacity:1"/><path fill="#ba7342" d="M107.5 461.5c11.671-.167 23.338 0 35 .5 7.908 4.858 7.908 9.858 0 15a306.347 306.347 0 0 1-35 0c-4.569-2.541-6.069-6.375-4.5-11.5 1.397-1.57 2.897-2.904 4.5-4ZM168.5 461.5c11.671-.167 23.338 0 35 .5 4.808 1.45 6.641 4.616 5.5 9.5-1.167 2.5-3 4.333-5.5 5.5a289.106 289.106 0 0 1-34 0c-5.95-2.477-7.45-6.643-4.5-12.5a30.233 30.233 0 0 1 3.5-3ZM229.5 461.5c11.671-.167 23.338 0 35 .5 4.791 1.412 6.624 4.579 5.5 9.5-1.167 2.5-3 4.333-5.5 5.5a289.106 289.106 0 0 1-34 0c-7.53-4.785-7.863-9.952-1-15.5Z" style="opacity:1"/><path fill="#ba7242" d="M290.5 461.5c11.671-.167 23.338 0 35 .5 4.791 1.412 6.624 4.579 5.5 9.5-1.167 2.5-3 4.333-5.5 5.5a289.106 289.106 0 0 1-34 0c-7.543-4.835-7.876-10.002-1-15.5Z" style="opacity:1"/><path fill="#ba7342" d="M351.5 461.5c12.005-.167 24.005 0 36 .5 5.252 3.086 6.252 7.253 3 12.5a12.403 12.403 0 0 1-4 2.5 289.106 289.106 0 0 1-34 0c-7.543-4.835-7.876-10.002-1-15.5ZM412.5 461.5c12.005-.167 24.005 0 36 .5 6.933 5.421 6.6 10.421-1 15a289.106 289.106 0 0 1-34 0c-7.543-4.835-7.876-10.002-1-15.5Z" style="opacity:1"/><path fill="#ba7342" d="M492.5 461.5v16a162.597 162.597 0 0 1-18-.5c-7.464-4.62-7.797-9.62-1-15 6.325-.5 12.658-.666 19-.5Z" style="opacity:.972"/></svg>
